<svg xmlns="http://www.w3.org/2000/svg" viewBox="0 0 720.76 899.24"><defs><style>.cls-1{fill:#fff;}</style></defs><title>astra_logo_white</title><g id="Layer_2" data-name="Layer 2"><rect width="720.76" height="899.24"/></g><g id="Layer_1" data-name="Layer 1"><path class="cls-1" d="M367,502c-1.2.47-3,.29-3.6,1.42,0,0-.95.9-.47,1.37s1.46,2.52,3.26,2.89,57.93,2.8,57.94,2.8h0a2.94,2.94,0,0,0,2.55-.33c1.18-1.12.05-3.86-.75-5.17a9.26,9.26,0,0,0-6.07-3.83Z" transform="translate(53.16 57.52)"/><path class="cls-1" d="M364.82,452.74c-3,2.63-.1,15.88.19,17.24,0,0,1.25,5.86,2.46,24.06.49,7.3.06,17.95-4.54,31.45,0,0,0,2.66,3.41,2.75a25.79,25.79,0,0,0,7.77-1.47,15.32,15.32,0,0,0,1.8-2.51,18.57,18.57,0,0,0,2-6.53c.85-4.69,1.27-7,1.43-8.72a71.7,71.7,0,0,0,.19-8.43c-.22-10.72-.43-21.36-2.47-26.91-.17-.47-.82-2.16-.47-2.36s1.35,1,2.18,2l28,37.62c9,12.69,15.66,22.2,19.42,28,.47.73,2.74,3.36,7.3,8.62,1.72,2,3.61,4.12,6.53,4.55.53.07,2.56.37,3.32-.67.9-1.23-.51-3.68-2.18-6.34a137.87,137.87,0,0,0-8.43-11.94L400.82,491,383.2,470.45c-10.2-10.5-13.6-14.82-14.4-16.58-.16-.35-.76-1.79-1.89-2A2.76,2.76,0,0,0,364.82,452.74Z" transform="translate(53.16 57.52)"/><path class="cls-1" d="M332.48,498.59q-.28,6.26-.56,12.5c-1.68,4.14-3.55,6-5,6.95a3.55,3.55,0,0,0-1.77,2c-.29,1.21.5,2.34,1.07,3.16a8.08,8.08,0,0,0,5.37,3.47,7.34,7.34,0,0,0,3.22-.25c1-.31,2.7-1.09,6-6.06,2.26-3.41,1.83-3.61,4.55-7.77,1.75-2.69,2.08-2.83,2.52-4.1a37.94,37.94,0,0,1,2-4.68c.13-.28.43-.89.82-.88s.55.58.88,1.13a5.18,5.18,0,0,0,2.78,2.28c1.16.32,2.19-.2,3.41-.82s2.61-1.32,3.16-2.72c.87-2.23-.81-4.81-.89-4.93-.73-1.09-1.57-1.54-1.76-2.84a4.07,4.07,0,0,1,.12-1.64,10,10,0,0,1,1.71-3.35,7.64,7.64,0,0,0,.19-7.07,5.44,5.44,0,0,0-3.16-2.91c-2.14-.55-4.08.94-5.75,2.21a11.71,11.71,0,0,0-3.72,4.55,13.34,13.34,0,0,0-.95,6.32,29.51,29.51,0,0,0,.63,5.43,13.2,13.2,0,0,0-2.34,3.79,12,12,0,0,1-1.61,3.13c-.35.47-1,1.34-1.39,1.2s-.3-1.6-.28-1.74a25,25,0,0,0,2-8.91c0-3.26-.77-4-.76-5.9a1.46,1.46,0,0,0-.39-1.15c-.26-.19-.78,0-2.45-.46-2.72-.82-11.69,4.61-11.69,4.61a2.83,2.83,0,0,0-1.39,2.71,3,3,0,0,0,1.77,2.09,3.86,3.86,0,0,0,2.46.31S332.49,498.38,332.48,498.59Z" transform="translate(53.16 57.52)"/><path class="cls-1" d="M259.28,500.11c.33-2,1.34-4,7.33-9,6.78-5.67,8.89-6,10-6.05s3.71-.23,5.4,1.56c2.65,2.81,1.4,9.1-1.75,10.42a5.39,5.39,0,0,1-4.07-.19c-1.76-.78-2.34-2.25-2.89-2s-.54,2.16-.1,3.93c.8,3.18,2.55,4.61,4,6.63.25.36,4.3,6.23,2.94,12.08-.94,4-4.05,6.43-6.59,8.38a23.73,23.73,0,0,1-9.52,4.31,18.62,18.62,0,0,1-10.18-.33c-1.52-.53-3.32-1.18-4-2.84-.63-1.47,0-2.94.76-4.93s2.83-6.92,6.06-7a4.72,4.72,0,0,1,2.94,1.23c.89.75.9,1.29,2.8,4.22.75,1.17,1.21,1.79,2,2a2.1,2.1,0,0,0,1.77-.25c.39-.33.6-.89.56-2.28a11.67,11.67,0,0,0-.69-3.91c-2.24-5.32-5.89-7.75-6.65-12.87A9.84,9.84,0,0,1,259.28,500.11Z" transform="translate(53.16 57.52)"/><path class="cls-1" d="M242.85,512.75a2.85,2.85,0,0,1,.23-1.66c.25-.49.57-.7,1.36-1.32,2.1-1.64,2.19-2,2.21-2.21a2,2,0,0,0-.88-1.64,2.33,2.33,0,0,0-1.41-.46l-1.56-.1c.07-7.65.36-15.73.95-24.2.56-8,1.34-15.69,2.27-22.93-.17-2.24-1.28-3.73-2.37-3.79a1.77,1.77,0,0,0-1.26.54c-13.4,14.59-27.29,30.81-41.27,48.73l0,0a70,70,0,0,0-11.9.52c-4.36.82-6.76,6.76-6.76,6.76s.06,2.72,3.92,3c1.9.16,4.55.16,6.75.12-9.93,13.18-19,26-27.22,38.41,0,0,.19,3,2.85,2.84s11-7.39,16.67-15.91,17.24-25.2,17.24-25.2l27.66-2.09s1.9,10.23,4.55,17a11.79,11.79,0,0,0,10,1.71,3.8,3.8,0,0,0,1.33-1.33c1.33-2.31-.63-5.25-2-9.66A32.66,32.66,0,0,1,242.85,512.75Zm-10.09-35.57c-1.27,4-1.42,8.34-2.18,12.5a50.82,50.82,0,0,0-.19,15.54l-20.56-1,22.11-28.51c.41-.5.94-1.07,1.17-.95S232.9,476.74,232.76,477.18Z" transform="translate(53.16 57.52)"/><polygon class="cls-1" points="359.51 555.51 359.53 555.54 359.56 555.54 359.57 555.5 359.58 552.33 359.56 552.32 359.53 552.32 359.48 552.33 359.51 555.51"/><polyline class="cls-1" points="359.38 601.86 359.53 601.86 359.56 601.86 359.71 601.86 359.56 617.12 359.53 617.12"/><path class="cls-1" d="M306.4,498V494.8l5.62-4.17-5.62,69V544.35q1.37-24.48,2.72-49Z" transform="translate(53.16 57.52)"/><path class="cls-1" d="M306.38,498V494.8l-6-4.48q3,34.63,6,69.28V544.35l-2.73-49Z" transform="translate(53.16 57.52)"/><path class="cls-1" d="M306.05,483.38c-1.9,0-3.44,1.83-3.44,4.1s1.54,4.11,3.44,4.11,3.44-1.84,3.44-4.11S308,483.38,306.05,483.38Zm-.05,6.78a2.71,2.71,0,1,1,2.26-2.68A2.5,2.5,0,0,1,306,490.16Z" transform="translate(53.16 57.52)"/><rect class="cls-1" x="358.48" y="469.8" width="1.47" height="3.65"/><polyline class="cls-1" points="358.37 504.27 359.95 504.27 359.76 499.78 358.61 499.78"/><polygon class="cls-1" points="358.61 499.78 358.61 504.28 353.88 508.6 355.11 537.87 357.86 536.35 358.61 532.61 359.19 532.61 359.19 537.87 354.35 542.32 352.84 542.32 350.18 508.26 358.61 499.78"/><polygon class="cls-1" points="359.76 499.78 359.76 504.28 364.5 508.6 363.26 537.87 360.52 536.35 359.76 532.61 359.18 532.61 359.18 537.87 364.02 542.32 365.54 542.32 368.19 508.26 359.76 499.78"/><path class="cls-1" d="M309.57,413h-1.66l.36-.63" transform="translate(53.16 57.52)"/><path class="cls-1" d="M307.91,413l1.57,2.56L307,418.73v21.12l9.61,8.06c0,.94.05,1.89.08,2.84l3.32-3.32-10.27-9.19V419.39l2.64-3.32L309.57,413Z" transform="translate(53.16 57.52)"/><polygon class="cls-1" points="357.35 470.46 355.83 473.02 358.2 476.24 358.2 497.37 348.38 505.23 348.82 508.26 345.6 504.95 355.55 495.76 355.55 476.9 352.99 473.59 355.74 470.46 357.16 469.8 357.35 470.46"/><path class="cls-1" d="M358.22,382.26v17.12s-10.36,10.1-15.16,13.14-10.61,7.07-15.41,9.09S315,426.16,315,426.16s9.6-6.57,12.63-8.84,12.38-10.05,14.91-13.11S358.22,382.26,358.22,382.26Z" transform="translate(53.16 57.52)"/><path class="cls-1" d="M252,383.26v17.12s10.36,10.1,15.16,13.14,10.61,7.07,15.41,9.09,12.63,4.55,12.63,4.55-9.6-6.57-12.63-8.84-12.38-10.05-14.91-13.11S252,383.26,252,383.26Z" transform="translate(53.16 57.52)"/><path class="cls-1" d="M246.62,381l-20.87-12.13a358.58,358.58,0,0,1-40.42-8.81c-11.3-3.14-19.62-6.05-34.49-11.27-10.44-3.67-24.56-8.79-41.3-15.38,6.82,3.43,23.44,12.06,24.88,12.82,7,3.29,23.21,10.85,40.3,18.13,15.82,6.74,19.51,7.76,22.26,8.4a70.08,70.08,0,0,1,10.14,3,66.79,66.79,0,0,1,10.67,5.18Z" transform="translate(53.16 57.52)"/><path class="cls-1" d="M364.54,381l20.87-12.13a358.58,358.58,0,0,0,40.42-8.81c11.29-3.14,19.62-6.05,34.49-11.27,10.43-3.67,24.56-8.79,41.3-15.38-6.82,3.43-23.44,12.06-24.88,12.82-7,3.29-23.21,10.85-40.3,18.13-15.82,6.74-19.52,7.76-22.26,8.4a70.08,70.08,0,0,0-10.14,3,66.79,66.79,0,0,0-10.67,5.18Z" transform="translate(53.16 57.52)"/><path class="cls-1" d="M385.41,388l29.37-5.18L443,386.61l-28,5.81Z" transform="translate(53.16 57.52)"/><polygon class="cls-1" points="221.56 445.01 249.28 440.78 278.15 446.08 249.85 450.5 221.56 445.01"/><polygon class="cls-1" points="362.53 324.69 341.99 267.88 342.5 264.95 363.88 324.69 362.53 324.69"/><polyline class="cls-1" points="330.75 373.89 291.78 389.41 290.85 391.31 330.87 375.42 330.75 373.89"/><path class="cls-1" d="M208.41,231.53c5.09,5.34,9,9.06,9.76,9.28a1.72,1.72,0,0,0,1,0,1.61,1.61,0,0,0,.67-.51,5.78,5.78,0,0,0,.9-1.38c.56-1.16.85-1.75.79-2.12a2.13,2.13,0,0,0-.79-1.2C218.87,234,209.1,231.69,208.41,231.53Z" transform="translate(53.16 57.52)"/><path class="cls-1" d="M233.39,245.77c-.23.4,3.49,3,4,3.35,2.21,1.52,4,2.48,4,2.52,4.65,2.54,5.52,3.57,18.45,11.12,8.77,5.12,7.25,4,11.55,6.63,4.67,2.86,9.49,5.46,14,8.53a45.19,45.19,0,0,0,4.49,2.46,14.85,14.85,0,0,0,3,1.07c.75.18,1.92.45,2.08.13s-.44-.83-1.76-1.9a53.85,53.85,0,0,0-5.94-4.16c-2-1.22-3.55-2.1-3.85-2.28-5.11-2.94-5.78-3.11-8.91-5.05-1.16-.72-1.69-1.08-2.9-1.77s-2.18-1.18-4-2.18-2.51-1.37-6.77-3.82c-12.35-7.1-10.66-5.88-14.21-8.08a80.94,80.94,0,0,0-8.09-4.55C237.77,247.37,233.62,245.37,233.39,245.77Z" transform="translate(53.16 57.52)"/><path class="cls-1" d="M316.63,298.32c-.46.74.6,1.51,1.14,3.79a12.45,12.45,0,0,1-.51,6.69c-.4,1.32-.61,1.36-2.71,5.37-.73,1.38-.35.71-3,6-3.15,6.21-3.1,6-3.41,6.69a29.09,29.09,0,0,0-2.22,14.85s.9,6.53,6.89,14c.8,1,1.08.91,1.14.89.44-.2,0-2.07-.07-2.53,0,0-.73-3.55.76-11.18,1.39-7.09,9.73-12.88,12.13-14.46,0,0-2.59-2.15-3.41-3s-3-3-3-4.17,2,.31,2,.31a16.23,16.23,0,0,0,2.65,2,18.56,18.56,0,0,0,4.86,2c3.7,1,8.75.52,9.6.95,1.25.62.9,1.13,2.59,2.27a18.21,18.21,0,0,0,5,2.09,34.72,34.72,0,0,0,6.18.75c2.4.16,3.91.15,6.66.12a36.88,36.88,0,0,0,4.5-.42c1.44-.21,2.66-.46,3.17-1.35a2.26,2.26,0,0,0,.33-1.09c0-2.18-.93-2.57-1.61-4.41-1.62-4.38-1.92-5-2.13-5.44a21.92,21.92,0,0,0-4.5-5.79,24.25,24.25,0,0,0-7.58-4.73c-.59-.23-2.13-.69-5.21-1.61a44.87,44.87,0,0,1-4.5-1.42c-2.07-.88-4-1.71-5.21-3.6-.8-1.26-.29-1.44-1.28-3.13a8.05,8.05,0,0,0-3.5-3.51,8.3,8.3,0,0,0-2.7-.66,9.9,9.9,0,0,0-2.61.1c-1,.14-3.12.43-3.17,1,0,.37.72.52,2.7,1.8.38.24.87.59,1.84,1.28,1.29.9,1.94,1.36,2.23,1.61a17.72,17.72,0,0,1,2.51,2.7c.93,1.18,1,1.57,1.72,1.92s1.06.12,2.08.44,1.19.7,2.36,1.43a17.32,17.32,0,0,0,3.32,1.47c1.87.69,1.87.48,3.45,1.09a13,13,0,0,1,3.7,1.94c.85.67,2.13,1.89,1.89,2.27s-2.3-.39-2.51-.47a32.12,32.12,0,0,1-3.31-1.9,32.66,32.66,0,0,0-3.18-1.13c-3-1.15-2.81-1.46-4.26-1.76-1.83-.37-2.58.05-3.6-.71a4.61,4.61,0,0,1-1.28-1.84c-.79-1.43-2-2.23-4.31-3.84a22.07,22.07,0,0,0-6.35-3.32C322,298.3,317.5,296.92,316.63,298.32Z" transform="translate(53.16 57.52)"/><path class="cls-1" d="M308.45,286.27a15.38,15.38,0,0,0-7.43-2.33c-2.57-.07-4.65.63-5-.15a1,1,0,0,1,.1-.76c1-2.54,1.8-3.46,2.33-5a25.09,25.09,0,0,0,.8-3,15.15,15.15,0,0,1,.41-1.68s.18-.58.37-1.05c.57-1.4,3-3.42,3.84-3.84a12.37,12.37,0,0,1,4.17-1.09,23.53,23.53,0,0,1,4.26-.19,29.85,29.85,0,0,1,4.66.43c4.8,1,7.84,5.73,8.21,6.32a15.16,15.16,0,0,1,1.13,14,14.74,14.74,0,0,1-4.15,5.29c-1.4,1.21-3.73,3.21-5.42,2.52-.81-.34-.66-1-2.16-3.33a20,20,0,0,0-3.08-3.88A16.12,16.12,0,0,0,308.45,286.27Z" transform="translate(53.16 57.52)"/><path class="cls-1" d="M219.12,243.46c-3,1-4.82,5.23-4.27,8.53.65,3.89,4.51,6.13,7,7.58s3,1,5.4,2.46c3.09,1.9,3.16,3.18,6.45,6.16a36.07,36.07,0,0,0,9.28,6.06c4,1.87,4.2,1,7,2.66,2.52,1.45,4.36,3.45,8,7.38,2.41,2.64,2.72,3.76,4.92,5.59,1.57,1.31,1.85,1.18,4.17,3.07s3.5,3.22,4.08,2.9.14-2.46.09-2.65c-1-4.21-4.91-5.31-5.11-8.91,0-.42-.06-.91.18-1,.89-.45,5,4.25,7.3,9.86,1.73,4.23.86,5.2,3,9.37,1.56,3,2.34,4.5,3.79,5.69,1.1.9,3.25,2.29,4.26,4.45.41.86.32,1.18.19,1.33-.32.36-1.31,0-1.7-.19-1.45-.58-1.64-1.31-2.84-1.8a3.06,3.06,0,0,0-2.18-.29c-.56.28-1.09,1.17,0,10.24.85,7.17,1.36,8.1,1.89,8.71a2.69,2.69,0,0,1,.85,2c-.1.78-.72.92-1.32,1.8a5,5,0,0,0-.48,4.55c.5,1.1,1.2,1,1.52,2.18a4.29,4.29,0,0,1-.19,2.46c-.64,2.38-1.58,2.55-1.61,3.88,0,1.53,1.16,1.71,1.42,3.41.22,1.42-.51,2-1.61,4.65a18.64,18.64,0,0,0-1.75,6.3,12.8,12.8,0,0,0,1.13,5.44c1.47,3.78,3.37,6.07,6.59,10.05,5.82,7.19,7.2,9.09,7.48,8.9s-2.44-4.46-5.3-11.94c-1.62-4.22-2.95-8.73-2.37-9s1.57,2.62,4.74,5.59a23.66,23.66,0,0,0,6.53,4.27c4.61,2.14,5.95,1.21,11,2.93,5.91,2,9,5,9.29,4.65s-3.86-4.55-9.29-8.15c-4.69-3.11-5.48-2.62-8.33-5.12a20.31,20.31,0,0,1-6.54-9.85c-1.11-4.1-.67-8.56.19-8.72.51-.09.9,1.4,2.18,3.42,1.81,2.85,3.89,4.4,7.2,6.82a92.47,92.47,0,0,0,9.19,5.49c6.57,3.67,6.43,3.36,8.9,4.93a72,72,0,0,1,9.38,7.1c3.43,3,5.15,4.51,6.73,6.82,2.64,3.87,3.37,7.27,4,7.11s.45-2.35-.1-4.26a10.89,10.89,0,0,0-2-3.79c-3.64-4.7-2.65-4.52-5.78-8.25-5.14-6.12-9.6-8.75-16.1-15.34-5.88-6-8.82-8.94-10.71-13.65-.92-2.28-4-10.73-.85-19.32,1.17-3.23,1.72-2.39,5.68-10.14,4.22-8.25,4.56-11.09,4.65-12.5a17.63,17.63,0,0,0-9.67-17.44,20.64,20.64,0,0,0-13-2.08l1,4.5c.13,1.43.25,2.85.37,4.28a15.6,15.6,0,0,1-1.24-2.14,27.61,27.61,0,0,1-1.22-3.36,20.33,20.33,0,0,0-2-3.66c-.41-.62-2.4-3.53-7.67-6.35-1.51-.8-2.1-1-9.57-3.5s-8-2.76-9.19-3.51c-3.56-2.28-3.14-3.63-6.73-6.44s-4.66-1.86-11.17-5.3a41.79,41.79,0,0,1-10.43-7.11c-2.75-2.67-2.74-3.57-5.49-5.78C225.37,245,222.16,242.43,219.12,243.46Z" transform="translate(53.16 57.52)"/><path class="cls-1" d="M222.91,263.83l-8.63-4.55a26.12,26.12,0,0,0-2.46,9.19,28.18,28.18,0,0,0,1,9.5c.82,2.93,2.15,5.37,4.82,10.23,1.63,3,3,5,3.34,5.63s1.35,2,3.28,4.74c3.7,5.24,3.61,5,4.17,5.94.94,1.5,1.85,3.25,3.67,6.75,1.36,2.64,1.86,3.72,2.16,4.47l.17.46a39.93,39.93,0,0,1,1.47,4.53,19.36,19.36,0,0,1,.38,5.16,12.46,12.46,0,0,1-.76,5.12,8.84,8.84,0,0,1-1.47,2.37,5,5,0,0,1-2.17,1.75,4.43,4.43,0,0,1-2.48.06c-1.27-.29-1.86-.94-2-.8s.75,1.72,2.34,2.53a5.44,5.44,0,0,0,3.25.47,6.05,6.05,0,0,0,2.94-1.45,8.71,8.71,0,0,0,2.27-3.22,18.13,18.13,0,0,0,1.47-4.5,26,26,0,0,0,.62-5.17,28.43,28.43,0,0,0-.38-4.7,48.08,48.08,0,0,0-2.15-8.66,64.51,64.51,0,0,0-2.59-6.44c-.95-2-1.58-3.09-4.55-8.21-3.85-6.65-4.67-8.12-5.74-10.42a34,34,0,0,1-2.53-6.88,28.86,28.86,0,0,1-.82-6.32A22.85,22.85,0,0,1,222.91,263.83Z" transform="translate(53.16 57.52)"/><path class="cls-1" d="M230.11,245.55l-9-5.26a32.11,32.11,0,0,1,6.91-9.43,32.6,32.6,0,0,1,14.4-7.83,75.76,75.76,0,0,1,8-1.2c3.76-.46,5.8-.83,8.66-1.14,3.39-.37,3.34-.27,5-.53a52,52,0,0,0,7.39-1.8,38.85,38.85,0,0,0,5.68-2.09,19.71,19.71,0,0,0,4.3-2.46,17.6,17.6,0,0,0,3.73-4.1,10.24,10.24,0,0,0,2-4.11,6.12,6.12,0,0,0-.13-3.28c-.78-2.17-2.79-2.93-2.65-3.16s3.14.38,4.53,2.71a6.86,6.86,0,0,1,.78,3.54,13.08,13.08,0,0,1-.76,4.74,17.16,17.16,0,0,1-3.29,5.56,24.94,24.94,0,0,1-5.49,4.8,33.58,33.58,0,0,1-8.15,4h0c-3,1.13-6.78,1.7-14.31,2.84-6,.91-8.55,1-12.6,2.65a26.4,26.4,0,0,0-7.58,4.55,25.44,25.44,0,0,0-6.82,9.66Z" transform="translate(53.16 57.52)"/></g></svg>