<svg xmlns="http://www.w3.org/2000/svg" viewBox="0 0 400 400" width="400" height="400">
	<style>
		tspan { white-space:pre }
		.shp0 { fill: #ffffff } 
	</style>
	<g id="Layer_1">
		<path id="Layer" class="shp0" d="M263.16 322.52C261.96 322.99 260.16 322.81 259.56 323.94C259.56 323.94 258.61 324.84 259.09 325.31C259.57 325.78 260.55 327.83 262.35 328.2C264.15 328.57 320.28 331 320.29 331L320.29 331C320.5 331.07 320.72 331.12 320.94 331.14C321.16 331.16 321.38 331.16 321.6 331.13C321.82 331.1 322.04 331.05 322.25 330.97C322.46 330.89 322.65 330.79 322.84 330.67C324.02 329.55 322.89 326.81 322.09 325.5C321.74 325 321.34 324.53 320.89 324.1C320.45 323.68 319.96 323.3 319.44 322.97C318.92 322.64 318.37 322.37 317.8 322.15C317.22 321.93 316.63 321.77 316.02 321.67L263.16 322.52Z" />
		<path id="Layer" class="shp0" d="M260.98 273.26C257.98 275.89 260.88 289.14 261.17 290.5C261.17 290.5 262.42 296.36 263.63 314.56C264.12 321.86 263.69 332.51 259.09 346.01C259.09 346.01 259.09 348.67 262.5 348.76C263.16 348.74 263.82 348.69 264.48 348.62C265.14 348.55 265.79 348.45 266.44 348.32C267.09 348.2 267.74 348.05 268.38 347.88C269.01 347.71 269.65 347.51 270.27 347.29C270.44 347.1 270.61 346.9 270.77 346.7C270.93 346.5 271.08 346.29 271.23 346.08C271.38 345.87 271.53 345.66 271.67 345.44C271.81 345.22 271.94 345 272.07 344.78C272.34 344.27 272.58 343.75 272.79 343.22C273.01 342.69 273.21 342.16 273.37 341.61C273.54 341.06 273.68 340.51 273.8 339.94C273.92 339.38 274.01 338.82 274.07 338.25C274.92 333.56 275.34 331.25 275.5 329.53C275.56 328.83 275.6 328.13 275.64 327.43C275.68 326.72 275.7 326.02 275.72 325.32C275.73 324.61 275.74 323.91 275.74 323.21C275.73 322.51 275.72 321.8 275.69 321.1C275.47 310.38 275.26 299.74 273.22 294.19C273.05 293.72 272.4 292.03 272.75 291.83C273.1 291.63 274.1 292.83 274.93 293.83L302.93 331.45C311.93 344.14 318.59 353.65 322.35 359.45C322.82 360.18 325.09 362.81 329.65 368.07C331.37 370.07 333.26 372.19 336.18 372.62C336.71 372.69 338.74 372.99 339.5 371.95C340.4 370.72 338.99 368.27 337.32 365.61C336.67 364.58 336.01 363.56 335.33 362.54C334.66 361.53 333.97 360.52 333.26 359.53C332.56 358.53 331.84 357.55 331.12 356.57C330.39 355.59 329.64 354.63 328.89 353.67L296.98 311.52L279.36 290.97C269.16 280.47 265.76 276.15 264.96 274.39C264.8 274.04 264.2 272.6 263.07 272.39C262.88 272.38 262.68 272.4 262.49 272.44C262.3 272.47 262.11 272.53 261.93 272.6C261.75 272.68 261.58 272.77 261.42 272.88C261.26 272.99 261.11 273.12 260.98 273.26Z" />
		<path id="Layer" class="shp0" d="M228.64 319.11C228.45 323.28 228.27 327.45 228.08 331.61C226.4 335.75 224.53 337.61 223.08 338.56C222.88 338.66 222.68 338.78 222.5 338.92C222.32 339.06 222.15 339.22 222 339.39C221.85 339.56 221.71 339.74 221.6 339.94C221.48 340.14 221.39 340.34 221.31 340.56C221.02 341.77 221.81 342.9 222.38 343.72C222.69 344.18 223.04 344.6 223.43 344.98C223.82 345.37 224.25 345.71 224.71 346.01C225.17 346.31 225.66 346.56 226.17 346.75C226.68 346.95 227.21 347.1 227.75 347.19C228.02 347.23 228.29 347.25 228.56 347.26C228.83 347.27 229.1 347.27 229.37 347.24C229.64 347.22 229.91 347.19 230.18 347.14C230.45 347.09 230.71 347.02 230.97 346.94C231.97 346.63 233.67 345.85 236.97 340.88C239.23 337.47 238.8 337.27 241.52 333.11C243.27 330.42 243.6 330.28 244.04 329.01C244.18 328.61 244.33 328.21 244.48 327.82C244.63 327.42 244.79 327.03 244.96 326.64C245.13 326.25 245.3 325.86 245.48 325.47C245.66 325.09 245.85 324.71 246.04 324.33C246.17 324.05 246.47 323.44 246.86 323.45C247.25 323.46 247.41 324.03 247.74 324.58C247.89 324.84 248.07 325.09 248.27 325.33C248.47 325.56 248.69 325.77 248.93 325.97C249.16 326.16 249.42 326.34 249.68 326.49C249.95 326.63 250.23 326.76 250.52 326.86C251.68 327.18 252.71 326.66 253.93 326.04C255.15 325.42 256.54 324.72 257.09 323.32C257.96 321.09 256.28 318.51 256.2 318.39C255.47 317.3 254.63 316.85 254.44 315.55C254.42 315.41 254.41 315.28 254.41 315.14C254.4 315 254.41 314.86 254.42 314.72C254.43 314.59 254.44 314.45 254.47 314.31C254.49 314.18 254.52 314.04 254.56 313.91C254.65 313.61 254.75 313.31 254.87 313.02C254.98 312.72 255.11 312.43 255.26 312.15C255.4 311.87 255.56 311.6 255.73 311.33C255.89 311.07 256.08 310.81 256.27 310.56C256.57 310.02 256.8 309.45 256.96 308.86C257.13 308.27 257.22 307.66 257.23 307.05C257.25 306.44 257.19 305.82 257.06 305.22C256.93 304.62 256.73 304.04 256.46 303.49C256.31 303.15 256.13 302.83 255.91 302.53C255.7 302.24 255.45 301.96 255.18 301.71C254.91 301.46 254.61 301.24 254.3 301.05C253.98 300.86 253.65 300.7 253.3 300.58C251.16 300.03 249.22 301.52 247.55 302.79C247.15 303.08 246.77 303.4 246.41 303.74C246.05 304.08 245.71 304.44 245.4 304.83C245.09 305.21 244.8 305.61 244.54 306.03C244.27 306.45 244.04 306.89 243.83 307.34C243.62 307.84 243.45 308.35 243.31 308.87C243.16 309.38 243.05 309.91 242.97 310.44C242.89 310.97 242.84 311.51 242.83 312.05C242.81 312.59 242.83 313.12 242.88 313.66C242.89 314.12 242.91 314.57 242.94 315.03C242.97 315.48 243.02 315.94 243.07 316.39C243.12 316.84 243.18 317.29 243.26 317.74C243.33 318.2 243.42 318.64 243.51 319.09C243.26 319.37 243.03 319.66 242.81 319.96C242.58 320.26 242.37 320.57 242.18 320.89C241.98 321.2 241.8 321.53 241.63 321.86C241.46 322.19 241.31 322.53 241.17 322.88C241.08 323.16 240.97 323.43 240.86 323.7C240.74 323.98 240.62 324.24 240.48 324.5C240.35 324.77 240.2 325.02 240.05 325.27C239.89 325.53 239.73 325.77 239.56 326.01C239.21 326.48 238.56 327.35 238.17 327.21C237.78 327.07 237.87 325.61 237.89 325.47C238.19 324.77 238.46 324.05 238.7 323.32C238.93 322.59 239.13 321.85 239.3 321.11C239.47 320.36 239.6 319.61 239.7 318.85C239.8 318.09 239.86 317.32 239.89 316.56C239.89 313.3 239.12 312.56 239.13 310.66C239.14 310.56 239.14 310.45 239.13 310.35C239.12 310.24 239.09 310.14 239.06 310.04C239.03 309.94 238.98 309.85 238.93 309.76C238.87 309.67 238.81 309.59 238.74 309.51C238.48 309.32 237.96 309.51 236.29 309.05C233.57 308.23 224.6 313.66 224.6 313.66C224.37 313.8 224.16 313.96 223.97 314.16C223.79 314.35 223.63 314.57 223.51 314.81C223.39 315.05 223.3 315.31 223.25 315.57C223.2 315.83 223.18 316.1 223.21 316.37C223.26 316.6 223.34 316.83 223.45 317.04C223.56 317.25 223.69 317.45 223.84 317.63C224 317.81 224.17 317.97 224.36 318.11C224.55 318.25 224.76 318.37 224.98 318.46C225.17 318.55 225.37 318.63 225.57 318.69C225.77 318.75 225.98 318.79 226.18 318.82C226.39 318.84 226.6 318.85 226.81 318.85C227.02 318.84 227.23 318.81 227.44 318.77C227.65 318.73 228.65 318.9 228.64 319.11Z" />
		<path id="Layer" class="shp0" d="M155.44 320.63C155.77 318.63 156.78 316.63 162.77 311.63C169.55 305.96 171.66 305.63 172.77 305.58C173.88 305.53 176.48 305.35 178.17 307.14C180.82 309.95 179.57 316.24 176.42 317.56C176.09 317.68 175.75 317.76 175.41 317.81C175.06 317.86 174.71 317.88 174.37 317.86C174.02 317.85 173.67 317.8 173.33 317.72C173 317.63 172.67 317.52 172.35 317.37C170.59 316.59 170.01 315.12 169.46 315.37C168.91 315.62 168.92 317.53 169.36 319.3C170.16 322.48 171.91 323.91 173.36 325.93C173.61 326.29 177.66 332.16 176.3 338.01C175.36 342.01 172.25 344.44 169.71 346.39C169.01 346.92 168.28 347.41 167.52 347.86C166.77 348.31 165.99 348.71 165.19 349.08C164.39 349.44 163.57 349.76 162.74 350.03C161.9 350.3 161.05 350.52 160.19 350.7C159.36 350.91 158.51 351.06 157.65 351.15C156.8 351.24 155.94 351.27 155.08 351.24C154.22 351.22 153.36 351.13 152.51 350.98C151.67 350.84 150.83 350.63 150.01 350.37C148.49 349.84 146.69 349.19 146.01 347.53C145.38 346.06 146.01 344.59 146.77 342.6C147.53 340.61 149.6 335.68 152.83 335.6C153.1 335.61 153.37 335.65 153.63 335.71C153.9 335.77 154.16 335.85 154.41 335.96C154.66 336.06 154.9 336.19 155.13 336.34C155.35 336.48 155.57 336.65 155.77 336.83C156.66 337.58 156.67 338.12 158.57 341.05C159.32 342.22 159.78 342.84 160.57 343.05C160.72 343.1 160.87 343.12 161.02 343.14C161.18 343.15 161.33 343.14 161.48 343.12C161.64 343.1 161.79 343.06 161.93 343.01C162.07 342.95 162.21 342.88 162.34 342.8C162.73 342.47 162.94 341.91 162.9 340.52C162.9 340.19 162.88 339.86 162.85 339.52C162.82 339.19 162.78 338.86 162.72 338.54C162.66 338.21 162.59 337.88 162.51 337.56C162.42 337.24 162.32 336.92 162.21 336.61C159.97 331.29 156.32 328.86 155.56 323.74C155.51 323.48 155.47 323.23 155.44 322.97C155.41 322.71 155.39 322.45 155.38 322.19C155.37 321.93 155.37 321.67 155.38 321.41C155.39 321.15 155.41 320.89 155.44 320.63Z" />
		<path id="Layer" fill-rule="evenodd" class="shp0" d="M139.01 333.27C139.06 333.87 139.12 334.48 139.2 335.08C139.28 335.68 139.38 336.28 139.49 336.87C139.6 337.47 139.74 338.06 139.88 338.65C140.03 339.24 140.19 339.82 140.37 340.4C141.74 344.81 143.7 347.75 142.37 350.06C142.29 350.2 142.2 350.33 142.1 350.45C142.01 350.58 141.9 350.7 141.79 350.81C141.68 350.92 141.56 351.03 141.43 351.12C141.31 351.22 141.18 351.31 141.04 351.39C140.2 351.63 139.33 351.77 138.46 351.82C137.59 351.86 136.71 351.81 135.85 351.67C134.98 351.52 134.14 351.28 133.33 350.94C132.52 350.61 131.76 350.18 131.04 349.68C128.39 342.91 126.49 332.68 126.49 332.68L98.83 334.77C98.83 334.77 87.26 351.45 81.59 359.97C75.92 368.49 67.58 375.72 64.92 375.88C62.26 376.04 62.07 373.04 62.07 373.04C70.29 360.63 79.36 347.81 89.29 334.63C87.09 334.67 84.44 334.67 82.54 334.51C78.68 334.23 78.62 331.51 78.62 331.51C78.62 331.51 81.02 325.57 85.38 324.75C86.37 324.62 87.35 324.52 88.34 324.43C89.33 324.34 90.33 324.28 91.32 324.24C92.31 324.19 93.31 324.17 94.3 324.17C95.29 324.17 96.29 324.19 97.28 324.23C111.26 306.31 125.15 290.09 138.55 275.5C138.63 275.42 138.72 275.34 138.82 275.27C138.91 275.21 139.02 275.15 139.13 275.1C139.23 275.06 139.35 275.02 139.46 275C139.58 274.97 139.69 274.96 139.81 274.96C140.9 275.02 142.01 276.51 142.18 278.75C141.25 285.99 140.47 293.68 139.91 301.68C139.32 310.15 139.03 318.23 138.96 325.88L140.52 325.98C140.65 325.98 140.77 325.99 140.9 326.01C141.02 326.03 141.14 326.06 141.26 326.09C141.38 326.13 141.5 326.18 141.61 326.24C141.72 326.3 141.83 326.36 141.93 326.44C142.06 326.53 142.19 326.64 142.29 326.76C142.4 326.88 142.5 327.01 142.57 327.15C142.65 327.29 142.71 327.44 142.75 327.6C142.79 327.76 142.81 327.92 142.81 328.08C142.79 328.29 142.7 328.65 140.6 330.29C139.81 330.91 139.49 331.12 139.24 331.61C139.18 331.74 139.13 331.87 139.09 332.01C139.05 332.14 139.02 332.28 139 332.42C138.98 332.56 138.97 332.7 138.97 332.85C138.98 332.99 138.99 333.13 139.01 333.27ZM129.27 295.28C129.04 295.16 128.51 295.73 128.1 296.23L105.99 324.74L126.55 325.74C126.37 324.45 126.23 323.16 126.15 321.86C126.07 320.56 126.03 319.26 126.05 317.96C126.06 316.66 126.13 315.36 126.24 314.07C126.36 312.77 126.53 311.48 126.74 310.2C127.5 306.04 127.65 301.7 128.92 297.7C129.06 297.26 129.5 295.4 129.27 295.28Z" />
		<path id="Layer" class="shp0" d="M202.51 318.51L202.53 318.54L202.56 318.54L202.57 318.5L202.58 315.33L202.56 315.32L202.53 315.32L202.48 315.33L202.51 318.51L202.51 318.51Z" />
		<path id="Layer" class="shp0" d="M202.38 364.86L202.53 364.86L202.56 364.86L202.71 364.86L202.56 380.12L202.53 380.12" />
		<path id="Layer" class="shp0" d="M202.56 318.52L202.56 315.32L208.18 311.15L202.56 380.15L202.56 364.87C203.47 348.55 204.38 332.22 205.28 315.87L202.56 318.52Z" />
		<path id="Layer" class="shp0" d="M202.54 318.52L202.54 315.32L196.54 310.84C198.54 333.93 200.54 357.02 202.54 380.12L202.54 364.87L199.81 315.87L202.54 318.52Z" />
		<path id="Layer" fill-rule="evenodd" class="shp0" d="M205.65 308C205.65 310.27 204.11 312.11 202.21 312.11C200.31 312.11 198.77 310.27 198.77 308C198.77 305.73 200.31 303.9 202.21 303.9C204.16 303.9 205.65 305.73 205.65 308ZM202.16 310.68C202.48 310.65 202.8 310.56 203.09 310.41C203.37 310.26 203.63 310.05 203.84 309.8C204.05 309.55 204.21 309.27 204.31 308.96C204.41 308.65 204.44 308.32 204.42 308C204.42 306.86 203.7 305.85 202.64 305.46C201.57 305.07 200.37 305.39 199.64 306.26C198.91 307.13 198.79 308.36 199.36 309.35C199.92 310.34 201.04 310.87 202.16 310.68Z" />
		<path id="Layer" class="shp0" d="M201.48 232.8L202.95 232.8L202.95 236.45L201.48 236.45L201.48 232.8Z" />
		<path id="Layer" class="shp0" d="M201.37 267.27L202.95 267.27L202.76 262.78L201.61 262.78" />
		<path id="Layer" class="shp0" d="M201.61 262.78L201.61 267.28L196.88 271.6L198.11 300.87L200.86 299.35L201.61 295.61L202.19 295.61L202.19 300.87L197.35 305.32L195.84 305.32L193.18 271.26L201.61 262.78L201.61 262.78Z" />
		<path id="Layer" class="shp0" d="M202.76 262.78L202.76 267.28L207.5 271.6L206.26 300.87L203.52 299.35L202.76 295.61L202.18 295.61L202.18 300.87L207.02 305.32L208.54 305.32L211.19 271.26L202.76 262.78L202.76 262.78Z" />
		<path id="Layer" class="shp0" d="M205.73 233.52L204.07 233.52L204.43 232.89" />
		<path id="Layer" class="shp0" d="M204.07 233.52L205.64 236.08L203.16 239.25L203.16 260.37L212.77 268.43C212.77 269.37 212.82 270.32 212.85 271.27L216.17 267.95L205.9 258.76L205.9 239.91L208.54 236.59L205.73 233.52L204.07 233.52Z" />
		<path id="Layer" class="shp0" d="M200.35 233.46L198.83 236.02L201.2 239.24L201.2 260.37L191.38 268.23L191.82 271.26L188.6 267.95L198.55 258.76L198.55 239.9L195.99 236.59L198.74 233.46L200.16 232.8L200.35 233.46L200.35 233.46Z" />
		<path id="Layer" class="shp0" d="M254.38 202.78L254.38 219.9C254.38 219.9 244.02 230 239.22 233.04C234.42 236.08 228.61 240.11 223.81 242.13C219.01 244.15 211.16 246.68 211.16 246.68C211.16 246.68 220.76 240.11 223.79 237.84C226.82 235.57 236.17 227.79 238.7 224.73C241.23 221.67 254.38 202.78 254.38 202.78Z" />
		<path id="Layer" class="shp0" d="M148.16 203.78L148.16 220.9C148.16 220.9 158.52 231 163.32 234.04C168.12 237.08 173.93 241.11 178.73 243.13C183.53 245.15 191.36 247.68 191.36 247.68C191.36 247.68 181.76 241.11 178.73 238.84C175.7 236.57 166.35 228.79 163.82 225.73C161.29 222.67 148.16 203.78 148.16 203.78Z" />
		<path id="Layer" class="shp0" d="M142.78 201.52L121.91 189.39C118.5 188.85 115.1 188.26 111.71 187.63C108.32 186.99 104.94 186.3 101.57 185.57C98.2 184.83 94.84 184.05 91.5 183.22C88.15 182.39 84.81 181.51 81.49 180.58C70.19 177.44 61.87 174.53 47 169.31C36.56 165.64 22.44 160.52 5.7 153.93C12.52 157.36 29.14 165.99 30.58 166.75C37.58 170.04 53.79 177.6 70.88 184.88C86.7 191.62 90.39 192.64 93.14 193.28C94 193.47 94.86 193.67 95.72 193.89C96.57 194.1 97.42 194.34 98.27 194.59C99.11 194.84 99.95 195.1 100.79 195.39C101.63 195.67 102.46 195.97 103.28 196.28C104.21 196.63 105.12 197 106.03 197.4C106.94 197.79 107.84 198.2 108.73 198.63C109.62 199.06 110.5 199.52 111.37 199.99C112.24 200.46 113.1 200.95 113.95 201.46L142.78 201.52Z" />
		<path id="Layer" class="shp0" d="M260.7 201.52L281.57 189.39C284.98 188.85 288.38 188.26 291.77 187.63C295.16 186.99 298.54 186.3 301.91 185.57C305.28 184.83 308.64 184.05 311.98 183.22C315.33 182.39 318.67 181.51 321.99 180.58C333.28 177.44 341.61 174.53 356.48 169.31C366.91 165.64 381.04 160.52 397.78 153.93C390.96 157.36 374.34 165.99 372.9 166.75C365.9 170.04 349.69 177.6 332.6 184.88C316.78 191.62 313.08 192.64 310.34 193.28C309.48 193.47 308.62 193.67 307.76 193.89C306.91 194.1 306.06 194.34 305.21 194.59C304.37 194.84 303.53 195.1 302.69 195.39C301.85 195.67 301.02 195.97 300.2 196.28C299.27 196.63 298.36 197 297.45 197.4C296.54 197.79 295.64 198.2 294.75 198.63C293.86 199.06 292.98 199.52 292.11 199.99C291.24 200.46 290.38 200.95 289.53 201.46L260.7 201.52Z" />
		<path id="Layer" class="shp0" d="M281.57 208.52L310.94 203.34L339.16 207.13L311.16 212.94L281.57 208.52Z" />
		<path id="Layer" class="shp0" d="M64.56 208.01L92.28 203.78L121.15 209.08L92.85 213.5L64.56 208.01L64.56 208.01Z" />
		<path id="Layer" class="shp0" d="M205.53 87.69L184.99 30.88L185.5 27.95L206.88 87.69L205.53 87.69L205.53 87.69Z" />
		<path id="Layer" class="shp0" d="M173.75 136.89L134.78 152.41L133.85 154.31L173.87 138.42L173.75 136.89" />
		<path id="Layer" class="shp0" d="M104.57 52.05C109.66 57.39 113.57 61.11 114.33 61.33C114.41 61.35 114.49 61.37 114.58 61.39C114.66 61.4 114.75 61.4 114.83 61.4C114.91 61.4 115 61.4 115.08 61.39C115.17 61.37 115.25 61.35 115.33 61.33C115.4 61.3 115.46 61.27 115.52 61.24C115.58 61.2 115.64 61.16 115.7 61.12C115.76 61.08 115.81 61.03 115.86 60.98C115.91 60.93 115.96 60.88 116 60.82C116.09 60.72 116.18 60.61 116.26 60.5C116.34 60.39 116.42 60.28 116.5 60.16C116.57 60.05 116.65 59.93 116.71 59.81C116.78 59.69 116.84 59.56 116.9 59.44C117.46 58.28 117.75 57.69 117.69 57.32C117.66 57.2 117.62 57.09 117.57 56.97C117.52 56.86 117.47 56.75 117.4 56.65C117.33 56.55 117.26 56.45 117.17 56.36C117.09 56.28 117 56.19 116.9 56.12C115.03 54.52 105.26 52.21 104.57 52.05Z" />
		<path id="Layer" class="shp0" d="M129.55 66.29C129.32 66.69 133.04 69.29 133.55 69.64C135.76 71.16 137.55 72.12 137.55 72.16C142.2 74.7 143.07 75.73 156 83.28C164.77 88.4 163.25 87.28 167.55 89.91C172.22 92.77 177.04 95.37 181.55 98.44C181.91 98.67 182.28 98.89 182.65 99.1C183.01 99.32 183.39 99.53 183.76 99.73C184.13 99.94 184.51 100.14 184.89 100.33C185.27 100.53 185.65 100.72 186.04 100.9C186.28 101.02 186.52 101.12 186.77 101.23C187.01 101.33 187.26 101.43 187.51 101.52C187.76 101.61 188.01 101.69 188.27 101.76C188.52 101.84 188.78 101.91 189.04 101.97C189.79 102.15 190.96 102.42 191.12 102.1C191.28 101.78 190.68 101.27 189.36 100.2C188.89 99.82 188.41 99.45 187.93 99.09C187.44 98.72 186.96 98.37 186.46 98.02C185.96 97.67 185.46 97.33 184.96 97C184.45 96.67 183.94 96.35 183.42 96.04C181.42 94.82 179.87 93.94 179.57 93.76C174.46 90.82 173.79 90.65 170.66 88.71C169.5 87.99 168.97 87.63 167.76 86.94C166.55 86.25 165.58 85.76 163.76 84.76C161.94 83.76 161.25 83.39 156.99 80.94C144.64 73.84 146.33 75.06 142.78 72.86C142.13 72.44 141.47 72.03 140.81 71.64C140.14 71.24 139.47 70.85 138.8 70.47C138.13 70.09 137.45 69.72 136.76 69.36C136.08 69 135.39 68.65 134.69 68.31C133.93 67.89 129.78 65.89 129.55 66.29Z" />
		<path id="Layer" class="shp0" d="M213.79 118.84C213.33 119.58 214.39 120.35 214.93 122.63C215.04 123.19 215.11 123.75 215.15 124.31C215.18 124.88 215.18 125.45 215.13 126.01C215.09 126.57 215.01 127.14 214.89 127.69C214.77 128.24 214.61 128.79 214.42 129.32C214.02 130.64 213.81 130.68 211.71 134.69C210.98 136.07 211.36 135.4 208.71 140.69C205.56 146.9 205.61 146.69 205.3 147.38C204.8 148.54 204.37 149.73 204.02 150.95C203.67 152.17 203.4 153.41 203.22 154.66C203.03 155.91 202.92 157.17 202.9 158.44C202.88 159.71 202.94 160.97 203.08 162.23C203.22 163.49 203.98 168.76 209.97 176.23C210.77 177.23 211.05 177.14 211.11 177.12C211.55 176.92 211.11 175.05 211.04 174.59C211.04 174.59 210.31 171.04 211.8 163.41C213.19 156.32 221.53 150.53 223.93 148.95C223.93 148.95 221.34 146.8 220.52 145.95C219.7 145.1 217.52 142.95 217.52 141.78C217.52 140.61 219.52 142.09 219.52 142.09C219.72 142.28 219.93 142.46 220.14 142.64C220.36 142.82 220.57 142.99 220.79 143.16C221.01 143.32 221.24 143.49 221.47 143.64C221.7 143.8 221.93 143.95 222.17 144.09C222.55 144.31 222.94 144.52 223.33 144.72C223.72 144.91 224.12 145.1 224.53 145.26C224.94 145.43 225.35 145.58 225.76 145.72C226.18 145.86 226.6 145.98 227.03 146.09C230.73 147.09 235.78 146.61 236.63 147.04C237.88 147.66 237.53 148.17 239.22 149.31C239.61 149.55 240 149.77 240.41 149.97C240.81 150.18 241.22 150.37 241.64 150.54C242.06 150.72 242.48 150.88 242.91 151.02C243.35 151.16 243.78 151.29 244.22 151.4C244.73 151.51 245.24 151.61 245.75 151.69C246.26 151.78 246.78 151.85 247.29 151.91C247.81 151.98 248.33 152.03 248.84 152.07C249.36 152.11 249.88 152.13 250.4 152.15C252.8 152.31 254.31 152.3 257.06 152.27C257.44 152.26 257.81 152.24 258.19 152.22C258.57 152.19 258.94 152.16 259.32 152.13C259.69 152.09 260.07 152.05 260.44 152.01C260.81 151.96 261.19 151.91 261.56 151.85C263 151.64 264.22 151.39 264.73 150.5C264.78 150.42 264.82 150.33 264.86 150.25C264.9 150.16 264.94 150.07 264.96 149.98C264.99 149.88 265.01 149.79 265.03 149.7C265.05 149.6 265.06 149.51 265.06 149.41C265.06 147.23 264.13 146.84 263.45 145C261.83 140.62 261.53 140 261.32 139.56C261.03 139.02 260.72 138.49 260.38 137.98C260.05 137.46 259.69 136.96 259.31 136.48C258.94 135.99 258.54 135.52 258.12 135.07C257.71 134.62 257.27 134.18 256.82 133.77C256.27 133.26 255.69 132.78 255.1 132.33C254.5 131.88 253.89 131.45 253.25 131.05C252.61 130.66 251.96 130.29 251.29 129.95C250.62 129.62 249.94 129.31 249.24 129.04C248.65 128.81 247.11 128.35 244.03 127.43C243.65 127.33 243.27 127.23 242.89 127.12C242.51 127.01 242.14 126.9 241.76 126.78C241.39 126.66 241.01 126.54 240.64 126.41C240.27 126.28 239.9 126.15 239.53 126.01C237.46 125.13 235.53 124.3 234.32 122.41C233.52 121.15 234.03 120.97 233.04 119.28C232.85 118.91 232.63 118.55 232.38 118.21C232.14 117.87 231.86 117.55 231.57 117.25C231.27 116.95 230.95 116.68 230.61 116.43C230.27 116.18 229.91 115.96 229.54 115.77C229.33 115.68 229.11 115.59 228.89 115.52C228.67 115.45 228.44 115.38 228.22 115.33C227.99 115.27 227.76 115.23 227.53 115.19C227.3 115.15 227.07 115.13 226.84 115.11C226.62 115.09 226.4 115.08 226.19 115.07C225.97 115.06 225.75 115.07 225.53 115.07C225.31 115.08 225.1 115.1 224.88 115.12C224.66 115.14 224.45 115.17 224.23 115.21C223.23 115.35 221.11 115.64 221.06 116.21C221.06 116.58 221.78 116.73 223.76 118.01C224.14 118.25 224.63 118.6 225.6 119.29C226.89 120.19 227.54 120.65 227.83 120.9C228.06 121.1 228.29 121.31 228.51 121.53C228.73 121.74 228.95 121.96 229.16 122.18C229.36 122.41 229.57 122.64 229.77 122.88C229.96 123.11 230.16 123.35 230.34 123.6C231.27 124.78 231.34 125.17 232.06 125.52C232.78 125.87 233.12 125.64 234.14 125.96C235.16 126.28 235.33 126.66 236.5 127.39C236.76 127.54 237.03 127.69 237.3 127.82C237.57 127.96 237.84 128.09 238.12 128.21C238.4 128.33 238.68 128.45 238.96 128.56C239.25 128.67 239.53 128.77 239.82 128.86C241.69 129.55 241.69 129.34 243.27 129.95C243.6 130.06 243.93 130.18 244.25 130.32C244.57 130.46 244.89 130.61 245.2 130.77C245.51 130.93 245.81 131.11 246.11 131.29C246.4 131.48 246.69 131.68 246.97 131.89C247.82 132.56 249.1 133.78 248.86 134.16C248.62 134.54 246.56 133.77 246.35 133.69C246.07 133.55 245.78 133.4 245.5 133.25C245.22 133.1 244.94 132.95 244.67 132.79C244.39 132.63 244.12 132.47 243.85 132.3C243.57 132.14 243.31 131.96 243.04 131.79C242.78 131.68 242.52 131.58 242.26 131.48C241.99 131.38 241.73 131.28 241.46 131.18C241.2 131.09 240.93 131 240.67 130.91C240.4 130.82 240.13 130.74 239.86 130.66C236.86 129.51 237.05 129.2 235.6 128.9C233.77 128.53 233.02 128.95 232 128.19C231.86 128.07 231.72 127.93 231.6 127.79C231.47 127.65 231.35 127.5 231.25 127.35C231.14 127.19 231.04 127.03 230.95 126.87C230.86 126.7 230.79 126.53 230.72 126.35C229.93 124.92 228.72 124.12 226.41 122.51C225.93 122.15 225.44 121.81 224.93 121.49C224.42 121.17 223.9 120.87 223.37 120.59C222.84 120.31 222.3 120.06 221.74 119.82C221.19 119.59 220.63 119.38 220.06 119.19C219.16 118.82 214.66 117.44 213.79 118.84Z" />
		<path id="Layer" class="shp0" d="M204.61 106.79C204.05 106.44 203.48 106.13 202.88 105.85C202.28 105.58 201.67 105.34 201.04 105.15C200.42 104.95 199.78 104.79 199.13 104.68C198.49 104.56 197.84 104.49 197.18 104.46C194.61 104.39 192.53 105.09 192.18 104.31C192.16 104.25 192.15 104.18 192.15 104.12C192.14 104.05 192.15 103.99 192.15 103.92C192.16 103.85 192.18 103.79 192.2 103.73C192.22 103.67 192.25 103.61 192.28 103.55C193.28 101.01 194.08 100.09 194.61 98.55C194.69 98.3 194.77 98.06 194.84 97.81C194.92 97.56 194.99 97.31 195.06 97.06C195.12 96.81 195.19 96.56 195.24 96.31C195.3 96.06 195.36 95.8 195.41 95.55C195.44 95.41 195.46 95.27 195.49 95.13C195.52 94.98 195.56 94.84 195.59 94.7C195.63 94.56 195.66 94.42 195.7 94.29C195.74 94.15 195.78 94.01 195.82 93.87C195.86 93.73 196 93.29 196.19 92.82C196.76 91.42 199.19 89.4 200.03 88.98C200.36 88.83 200.69 88.69 201.03 88.57C201.37 88.45 201.72 88.34 202.07 88.25C202.42 88.16 202.77 88.08 203.13 88.02C203.48 87.96 203.84 87.92 204.2 87.89C204.55 87.84 204.91 87.8 205.26 87.77C205.62 87.74 205.97 87.71 206.33 87.7C206.68 87.68 207.04 87.67 207.39 87.67C207.75 87.68 208.1 87.68 208.46 87.7C208.85 87.71 209.24 87.72 209.63 87.74C210.02 87.76 210.41 87.79 210.8 87.82C211.19 87.86 211.58 87.9 211.96 87.95C212.35 88.01 212.74 88.06 213.12 88.13C217.92 89.13 220.96 93.86 221.33 94.45C221.98 95.48 222.5 96.59 222.89 97.74C223.27 98.9 223.52 100.1 223.61 101.31C223.71 102.53 223.66 103.75 223.47 104.95C223.27 106.15 222.94 107.33 222.46 108.45C222.22 108.96 221.95 109.46 221.66 109.94C221.36 110.43 221.04 110.89 220.69 111.33C220.34 111.78 219.97 112.2 219.57 112.61C219.17 113.01 218.75 113.39 218.31 113.74C216.91 114.95 214.58 116.95 212.89 116.26C212.08 115.92 212.23 115.26 210.73 112.93C210.51 112.58 210.29 112.23 210.05 111.89C209.82 111.55 209.57 111.22 209.31 110.89C209.05 110.57 208.79 110.25 208.51 109.95C208.23 109.64 207.95 109.34 207.65 109.05C207.42 108.83 207.18 108.62 206.94 108.42C206.7 108.22 206.45 108.02 206.2 107.83C205.94 107.64 205.68 107.46 205.42 107.29C205.15 107.11 204.88 106.95 204.61 106.79L204.61 106.79Z" />
		<path id="Layer" class="shp0" d="M115.28 63.98C112.28 64.98 110.46 69.21 111.01 72.51C111.66 76.4 115.52 78.64 118.01 80.09C120.5 81.54 121.01 81.09 123.41 82.55C126.5 84.45 126.57 85.73 129.86 88.71C130.55 89.33 131.26 89.92 132 90.49C132.73 91.05 133.49 91.59 134.27 92.1C135.04 92.61 135.84 93.08 136.65 93.53C137.46 93.97 138.29 94.39 139.14 94.77C143.14 96.64 143.34 95.77 146.14 97.43C148.66 98.88 150.5 100.88 154.14 104.81C156.55 107.45 156.86 108.57 159.06 110.4C160.63 111.71 160.91 111.58 163.23 113.47C165.55 115.36 166.73 116.69 167.31 116.37C167.89 116.05 167.45 113.91 167.4 113.72C166.4 109.51 162.49 108.41 162.29 104.81C162.29 104.39 162.23 103.9 162.47 103.81C163.36 103.36 167.47 108.06 169.77 113.67C171.5 117.9 170.63 118.87 172.77 123.04C174.33 126.04 175.11 127.54 176.56 128.73C177.66 129.63 179.81 131.02 180.82 133.18C181.23 134.04 181.14 134.36 181.01 134.51C180.69 134.87 179.7 134.51 179.31 134.32C177.86 133.74 177.67 133.01 176.47 132.52C176.31 132.43 176.13 132.36 175.95 132.3C175.78 132.24 175.59 132.2 175.41 132.17C175.22 132.15 175.03 132.14 174.85 132.15C174.66 132.16 174.47 132.19 174.29 132.23C173.73 132.51 173.2 133.4 174.29 142.47C175.14 149.64 175.65 150.57 176.18 151.18C176.32 151.31 176.44 151.45 176.55 151.6C176.65 151.75 176.74 151.92 176.82 152.09C176.89 152.26 176.94 152.44 176.98 152.62C177.02 152.81 177.03 152.99 177.03 153.18C176.93 153.96 176.31 154.1 175.71 154.98C175.49 155.31 175.32 155.67 175.18 156.04C175.05 156.41 174.96 156.8 174.92 157.2C174.88 157.59 174.88 157.99 174.94 158.38C174.99 158.77 175.09 159.16 175.23 159.53C175.73 160.63 176.43 160.53 176.75 161.71C176.79 161.91 176.82 162.12 176.84 162.33C176.85 162.54 176.85 162.75 176.84 162.95C176.82 163.16 176.79 163.37 176.74 163.57C176.7 163.78 176.64 163.98 176.56 164.17C175.92 166.55 174.98 166.72 174.95 168.05C174.95 169.58 176.11 169.76 176.37 171.46C176.59 172.88 175.86 173.46 174.76 176.11C174.52 176.6 174.31 177.11 174.12 177.62C173.92 178.13 173.75 178.65 173.61 179.18C173.46 179.71 173.34 180.24 173.24 180.78C173.14 181.32 173.06 181.86 173.01 182.41C173 182.88 173.02 183.34 173.07 183.81C173.11 184.27 173.18 184.73 173.28 185.19C173.37 185.65 173.49 186.1 173.64 186.54C173.78 186.99 173.95 187.42 174.14 187.85C175.61 191.63 177.51 193.92 180.73 197.9C186.55 205.09 187.93 206.99 188.21 206.8C188.49 206.61 185.77 202.34 182.91 194.86C181.29 190.64 179.96 186.13 180.54 185.86C181.12 185.59 182.11 188.48 185.28 191.45C185.76 191.89 186.26 192.32 186.77 192.72C187.29 193.12 187.82 193.5 188.37 193.86C188.91 194.21 189.48 194.55 190.05 194.86C190.62 195.17 191.21 195.46 191.81 195.72C196.42 197.86 197.76 196.93 202.81 198.65C208.72 200.65 211.81 203.65 212.1 203.3C212.39 202.95 208.24 198.75 202.81 195.15C198.12 192.04 197.33 192.53 194.48 190.03C193.71 189.39 192.98 188.7 192.31 187.96C191.64 187.22 191.03 186.42 190.48 185.59C189.92 184.76 189.43 183.89 189.01 182.98C188.58 182.07 188.23 181.14 187.94 180.18C186.83 176.08 187.27 171.62 188.13 171.46C188.64 171.37 189.03 172.86 190.31 174.88C192.12 177.73 194.2 179.28 197.51 181.7C198.25 182.2 198.99 182.69 199.75 183.17C200.5 183.65 201.26 184.12 202.03 184.58C202.79 185.04 203.56 185.48 204.34 185.92C205.12 186.35 205.91 186.78 206.7 187.19C213.27 190.86 213.13 190.55 215.6 192.12C216.43 192.65 217.25 193.19 218.05 193.75C218.86 194.31 219.65 194.89 220.44 195.48C221.22 196.07 221.99 196.68 222.75 197.3C223.5 197.93 224.25 198.57 224.98 199.22C228.41 202.22 230.13 203.73 231.71 206.04C234.35 209.91 235.08 213.31 235.71 213.15C236.34 212.99 236.16 210.8 235.61 208.89C235.51 208.55 235.39 208.21 235.25 207.87C235.12 207.54 234.97 207.21 234.8 206.9C234.63 206.58 234.45 206.27 234.25 205.97C234.05 205.67 233.84 205.38 233.61 205.1C229.97 200.4 230.96 200.58 227.83 196.85C222.69 190.73 218.23 188.1 211.73 181.51C205.85 175.51 202.91 172.57 201.02 167.86C200.1 165.58 197.02 157.13 200.17 148.54C201.34 145.31 201.89 146.15 205.85 138.4C210.07 130.15 210.41 127.31 210.5 125.9C210.67 124.14 210.57 122.36 210.21 120.63C209.85 118.9 209.23 117.23 208.37 115.68C207.51 114.13 206.42 112.72 205.15 111.5C203.87 110.28 202.41 109.25 200.83 108.46C199.84 107.94 198.81 107.5 197.75 107.15C196.69 106.8 195.6 106.53 194.5 106.36C193.4 106.18 192.28 106.09 191.16 106.1C190.05 106.1 188.93 106.2 187.83 106.38L188.83 110.88C188.96 112.31 189.08 113.73 189.2 115.16C189.08 114.99 188.97 114.82 188.86 114.64C188.75 114.47 188.64 114.29 188.54 114.11C188.43 113.94 188.33 113.76 188.24 113.57C188.14 113.39 188.05 113.21 187.96 113.02C187.84 112.75 187.73 112.47 187.61 112.2C187.5 111.92 187.4 111.64 187.3 111.36C187.19 111.08 187.1 110.8 187 110.51C186.91 110.23 186.82 109.95 186.74 109.66C186.61 109.34 186.46 109.02 186.31 108.71C186.16 108.39 186 108.08 185.83 107.78C185.67 107.47 185.49 107.17 185.31 106.88C185.13 106.58 184.94 106.29 184.74 106C184.33 105.38 182.34 102.47 177.07 99.65C175.56 98.85 174.97 98.65 167.5 96.15C160.03 93.65 159.5 93.39 158.31 92.64C154.75 90.36 155.17 89.01 151.58 86.2C147.99 83.39 146.92 84.34 140.41 80.9C139.46 80.44 138.52 79.95 137.61 79.42C136.69 78.9 135.8 78.34 134.93 77.74C134.05 77.15 133.2 76.52 132.38 75.86C131.55 75.2 130.75 74.51 129.98 73.79C127.23 71.12 127.24 70.22 124.49 68.01C121.53 65.52 118.32 62.95 115.28 63.98Z" />
		<path id="Layer" class="shp0" d="M119.07 84.35L110.44 79.8C110.1 80.52 109.79 81.26 109.51 82C109.24 82.75 108.99 83.51 108.79 84.28C108.58 85.05 108.41 85.83 108.28 86.62C108.14 87.4 108.04 88.2 107.98 88.99C107.93 89.79 107.91 90.59 107.93 91.39C107.94 92.19 107.99 92.99 108.07 93.78C108.16 94.58 108.28 95.37 108.43 96.16C108.58 96.94 108.76 97.72 108.98 98.49C109.8 101.42 111.13 103.86 113.8 108.72C115.43 111.72 116.8 113.72 117.14 114.35C117.48 114.98 118.49 116.35 120.42 119.09C124.12 124.33 124.03 124.09 124.59 125.03C125.53 126.53 126.44 128.28 128.26 131.78C129.62 134.42 130.12 135.5 130.42 136.25L130.59 136.71C130.73 137.08 130.87 137.45 131.01 137.83C131.14 138.2 131.27 138.58 131.39 138.95C131.52 139.33 131.63 139.71 131.74 140.09C131.85 140.47 131.96 140.86 132.06 141.24C132.15 141.66 132.22 142.09 132.28 142.52C132.35 142.95 132.39 143.38 132.42 143.81C132.45 144.24 132.47 144.67 132.48 145.1C132.48 145.54 132.47 145.97 132.44 146.4C132.47 146.83 132.47 147.27 132.45 147.7C132.43 148.14 132.39 148.57 132.33 149C132.26 149.43 132.18 149.86 132.07 150.28C131.96 150.7 131.83 151.11 131.68 151.52C131.59 151.74 131.49 151.95 131.38 152.15C131.28 152.36 131.16 152.56 131.04 152.76C130.92 152.96 130.79 153.16 130.65 153.34C130.51 153.53 130.36 153.71 130.21 153.89C130.08 154.08 129.93 154.27 129.77 154.44C129.61 154.61 129.43 154.77 129.25 154.92C129.07 155.07 128.87 155.2 128.67 155.32C128.47 155.44 128.26 155.55 128.04 155.64C127.84 155.7 127.64 155.75 127.43 155.79C127.22 155.82 127.01 155.84 126.8 155.85C126.59 155.85 126.39 155.84 126.18 155.82C125.97 155.79 125.76 155.75 125.56 155.7C124.29 155.41 123.7 154.76 123.56 154.9C123.42 155.04 124.31 156.62 125.9 157.43C126.15 157.55 126.41 157.65 126.68 157.73C126.94 157.82 127.21 157.88 127.49 157.92C127.76 157.96 128.04 157.97 128.32 157.97C128.6 157.97 128.88 157.95 129.15 157.9C129.42 157.85 129.69 157.78 129.95 157.69C130.22 157.61 130.47 157.5 130.72 157.38C130.97 157.26 131.21 157.12 131.44 156.96C131.67 156.81 131.88 156.64 132.09 156.45C132.34 156.23 132.57 155.99 132.79 155.75C133.01 155.5 133.22 155.24 133.41 154.97C133.6 154.7 133.78 154.42 133.93 154.13C134.09 153.84 134.24 153.54 134.36 153.23C134.53 152.87 134.69 152.51 134.84 152.14C134.98 151.78 135.12 151.4 135.24 151.03C135.37 150.65 135.48 150.27 135.57 149.89C135.67 149.51 135.76 149.12 135.83 148.73C135.92 148.31 136.01 147.88 136.08 147.45C136.16 147.02 136.22 146.59 136.27 146.16C136.32 145.73 136.36 145.3 136.39 144.86C136.42 144.43 136.44 143.99 136.45 143.56C136.45 143.17 136.44 142.77 136.43 142.38C136.41 141.99 136.39 141.59 136.36 141.2C136.33 140.81 136.29 140.42 136.24 140.03C136.19 139.64 136.13 139.25 136.07 138.86C135.96 138.12 135.83 137.39 135.68 136.66C135.54 135.93 135.38 135.2 135.2 134.48C135.02 133.76 134.82 133.04 134.61 132.33C134.4 131.61 134.17 130.9 133.92 130.2C133.73 129.65 133.54 129.11 133.34 128.56C133.14 128.02 132.93 127.48 132.71 126.95C132.5 126.41 132.27 125.87 132.04 125.34C131.81 124.81 131.57 124.28 131.33 123.76C130.38 121.76 129.75 120.67 126.78 115.55C122.93 108.9 122.11 107.43 121.04 105.13C120.77 104.58 120.51 104.03 120.27 103.46C120.03 102.9 119.8 102.33 119.59 101.76C119.38 101.18 119.18 100.6 119 100.02C118.82 99.43 118.66 98.84 118.51 98.25C118.38 97.73 118.27 97.21 118.17 96.69C118.08 96.17 117.99 95.64 117.93 95.11C117.86 94.58 117.8 94.06 117.76 93.52C117.72 92.99 117.7 92.46 117.69 91.93C117.7 91.28 117.73 90.64 117.79 90C117.85 89.36 117.94 88.72 118.06 88.08C118.17 87.45 118.32 86.82 118.49 86.19C118.65 85.57 118.85 84.96 119.07 84.35L119.07 84.35Z" />
		<path id="Layer" class="shp0" d="M126.27 66.07L117.27 60.81C117.7 59.93 118.16 59.06 118.67 58.22C119.17 57.38 119.71 56.57 120.29 55.78C120.87 54.99 121.49 54.22 122.14 53.49C122.78 52.76 123.47 52.05 124.18 51.38C125.19 50.44 126.26 49.56 127.38 48.75C128.5 47.94 129.67 47.2 130.88 46.55C132.09 45.89 133.35 45.3 134.63 44.8C135.92 44.3 137.24 43.88 138.58 43.55C139.24 43.41 139.9 43.29 140.57 43.17C141.23 43.05 141.9 42.94 142.56 42.84C143.23 42.74 143.9 42.65 144.57 42.57C145.24 42.49 145.91 42.41 146.58 42.35C150.34 41.89 152.38 41.52 155.24 41.21C158.63 40.84 158.58 40.94 160.24 40.68C160.87 40.58 161.49 40.46 162.11 40.33C162.73 40.2 163.35 40.07 163.97 39.92C164.58 39.77 165.2 39.6 165.81 39.43C166.42 39.26 167.03 39.07 167.63 38.88C168.12 38.74 168.6 38.6 169.08 38.44C169.56 38.29 170.04 38.12 170.51 37.95C170.98 37.77 171.45 37.59 171.92 37.4C172.39 37.2 172.85 37 173.31 36.79C173.69 36.63 174.07 36.46 174.44 36.28C174.81 36.1 175.18 35.9 175.54 35.7C175.9 35.49 176.25 35.27 176.6 35.05C176.94 34.82 177.28 34.58 177.61 34.33C177.97 34.04 178.32 33.74 178.66 33.42C179 33.1 179.33 32.77 179.64 32.43C179.95 32.08 180.25 31.73 180.53 31.36C180.82 31 181.09 30.62 181.34 30.23C181.58 29.93 181.8 29.62 182.01 29.29C182.22 28.97 182.4 28.63 182.57 28.29C182.74 27.94 182.89 27.59 183.02 27.23C183.15 26.86 183.25 26.49 183.34 26.12C183.4 25.85 183.45 25.58 183.48 25.3C183.5 25.03 183.51 24.75 183.5 24.47C183.49 24.19 183.46 23.92 183.41 23.65C183.36 23.37 183.29 23.1 183.21 22.84C182.43 20.67 180.42 19.91 180.56 19.68C180.7 19.45 183.7 20.06 185.09 22.39C185.23 22.66 185.36 22.94 185.46 23.23C185.57 23.51 185.65 23.81 185.72 24.11C185.78 24.41 185.83 24.71 185.86 25.01C185.88 25.32 185.89 25.62 185.87 25.93C185.88 26.33 185.87 26.73 185.85 27.14C185.82 27.54 185.77 27.94 185.71 28.34C185.65 28.73 185.56 29.13 185.46 29.52C185.36 29.91 185.25 30.29 185.11 30.67C184.93 31.18 184.72 31.68 184.49 32.17C184.26 32.66 184 33.14 183.73 33.61C183.45 34.07 183.16 34.53 182.84 34.96C182.52 35.4 182.18 35.82 181.82 36.23C181.42 36.69 181.01 37.14 180.58 37.58C180.15 38.01 179.71 38.43 179.25 38.83C178.79 39.23 178.32 39.62 177.83 39.98C177.34 40.35 176.84 40.7 176.33 41.03C175.7 41.45 175.06 41.86 174.4 42.24C173.74 42.61 173.07 42.97 172.39 43.31C171.71 43.64 171.02 43.95 170.31 44.24C169.61 44.53 168.9 44.79 168.18 45.03L168.18 45.03C165.18 46.16 161.4 46.73 153.87 47.87C147.87 48.78 145.32 48.87 141.27 50.52C140.58 50.79 139.9 51.09 139.24 51.41C138.57 51.74 137.92 52.09 137.29 52.48C136.65 52.86 136.03 53.26 135.43 53.7C134.83 54.13 134.25 54.59 133.69 55.07C132.94 55.73 132.24 56.43 131.57 57.17C130.91 57.91 130.28 58.69 129.71 59.5C129.14 60.31 128.61 61.16 128.14 62.03C127.66 62.9 127.24 63.81 126.87 64.73L126.27 66.07Z" />
	</g>
</svg>